<?xml version="1.0" encoding="UTF-8" standalone="no"?>
<!-- Created with Inkscape (http://www.inkscape.org/) -->

<svg
   viewBox="0 0 512.00002 512.00001"
   version="1.1"
   id="svg5"
   height="512"
   width="512"
   xmlns="http://www.w3.org/2000/svg"
   xmlns:svg="http://www.w3.org/2000/svg">
  <defs
     id="defs2063" />
  <g
     id="g2067">
    <path
       d="M 10.530121,415.57173 C 5.4489794,413.75451 2.0651841,410.45128 0.80094413,406.07424 0.11043303,403.68365 -0.13130457,353.8192 0.06683853,254.6488 l 0.2955496,-147.86104 2.10718047,-2.82671 c 1.1589247,-1.55468 3.6369988,-3.72782 5.5068317,-4.829228 3.3747127,-1.98775 5.2004587,-2.002471 248.2048097,-2.002471 243.00433,0 244.83007,0.01514 248.20479,2.002471 1.86984,1.101408 4.3479,3.274578 5.50684,4.829378 L 512,106.78803 V 256.82834 406.8687 l -2.10716,2.82683 c -1.15894,1.55475 -3.637,3.72796 -5.50684,4.82934 -3.37186,1.98612 -5.39273,2.00425 -246.70293,2.2131 -204.304601,0.17666 -243.920259,-0.0121 -247.152798,-1.16624 z M 482.46303,256.82834 V 126.66613 H 256.18107 29.899055 V 256.82834 386.99055 H 256.18107 482.46303 Z M 71.960811,350.08923 c -2.042811,-1.09554 -4.398239,-3.62467 -5.74157,-6.16497 l -2.277772,-4.30729 v -82.78863 -82.78859 l 2.277772,-4.3073 c 4.481416,-8.47447 0.101794,-8.02312 77.806439,-8.01889 66.27351,0.004 68.70984,0.07 71.80657,1.95824 7.63724,4.6567 9.06951,16.52738 2.78546,23.0865 -1.47407,1.53863 -4.63834,3.29055 -7.03174,3.89323 -2.89617,0.72926 -23.29038,1.09572 -60.97929,1.09572 H 93.978904 v 25.00485 25.00489 l 51.491716,0.27662 c 50.22279,0.26981 51.5598,0.32735 54.25585,2.34101 4.96593,3.70879 6.62326,6.825 6.62326,12.45372 0,5.62872 -1.65733,8.74494 -6.62326,12.45372 -2.69605,2.01349 -4.03306,2.07119 -54.25585,2.341 l -51.491716,0.27664 -0.0036,34.76707 c -0.0034,32.92605 -0.108976,34.93984 -1.993351,38.03029 -4.166566,6.83369 -12.931518,9.19438 -20.020995,5.39221 z m 192.687989,-0.008 c -5.56865,-3.3959 -8.19648,-9.36593 -7.00456,-15.91339 0.5942,-3.26391 5.42418,-8.50153 37.38852,-40.54395 l 36.70614,-36.79543 -36.70614,-36.79582 c -31.96434,-32.04241 -36.79432,-37.28003 -37.38852,-40.54394 -1.21065,-6.65028 1.91075,-13.36167 7.57726,-16.29196 3.38753,-1.75173 10.2066,-1.94681 13.30314,-0.38059 1.20287,0.6084 18.40955,17.27924 38.2371,37.04627 l 36.0501,35.94007 35.53911,-35.60993 c 19.54647,-19.58547 36.75575,-36.25627 38.2428,-37.04627 5.47429,-2.90815 14.99912,-0.86103 18.38197,3.95075 0.82062,1.16725 1.95672,3.84124 2.52462,5.94213 2.06723,7.64739 1.45711,8.42059 -37.4734,47.49409 l -36.1624,36.2952 36.1624,36.29526 c 38.93051,39.07357 39.54063,39.84677 37.4734,47.49412 -0.5679,2.10094 -1.704,4.77488 -2.52462,5.94212 -3.38285,4.81182 -12.90768,6.85892 -18.38197,3.95075 -1.48705,-0.78995 -18.69633,-17.46079 -38.2428,-37.04626 l -35.53911,-35.60996 -36.0501,35.94009 c -19.82755,19.76704 -37.03423,36.43788 -38.2371,37.04628 -3.37222,1.70568 -10.47074,1.31734 -13.87584,-0.75915 z"
       id="path2065" />
  </g>
</svg>
