<?xml version="1.0" standalone="no"?>
<!DOCTYPE svg PUBLIC "-//W3C//DTD SVG 20010904//EN"
 "http://www.w3.org/TR/2001/REC-SVG-20010904/DTD/svg10.dtd">
<svg version="1.0" xmlns="http://www.w3.org/2000/svg"
 width="700.000000pt" height="700.000000pt" viewBox="0 0 700.000000 700.000000"
 preserveAspectRatio="xMidYMid meet">
<metadata>
Created by potrace 1.14, written by Peter Selinger 2001-2017
</metadata>
<g transform="translate(0.000000,700.000000) scale(0.100000,-0.100000)"
fill="#000000" stroke="none">
<path d="M1790 5673 c-14 -1 -387 -4 -830 -6 -904 -3 -844 2 -916 -80 l-40
-45 0 -2044 c1 -1556 4 -2049 13 -2070 22 -49 78 -95 135 -109 44 -12 563 -14
3183 -13 1722 0 3221 3 3331 6 226 7 239 10 298 80 l36 42 0 2057 0 2057 -51
51 c-28 28 -56 51 -62 52 -7 0 -21 3 -32 6 -37 9 -1022 14 -3040 16 -1100 1
-2011 1 -2025 0z m4805 -2185 l1 -1778 -3093 0 -3093 0 0 1780 0 1779 3093 -2
3092 -2 0 -1777z"/>
<path d="M1139 4786 c-2 -2 -33 -6 -69 -9 -106 -9 -127 -22 -171 -107 l-23
-45 -2 -1130 -1 -1130 23 -47 c53 -105 131 -144 243 -122 48 10 118 78 132
127 8 29 12 184 13 501 l2 459 454 3 c637 3 889 6 932 11 42 6 109 58 132 103
9 20 14 54 12 100 -1 60 -5 74 -32 107 -66 83 -47 81 -901 85 -396 2 -594 6
-596 13 -2 5 -3 159 -3 340 l1 330 505 2 c278 1 638 3 801 6 288 4 298 5 344
28 159 79 133 333 -38 367 -46 9 -1748 17 -1758 8z"/>
<path d="M3685 4785 c-5 -2 -22 -6 -38 -9 -40 -9 -103 -75 -116 -121 -19 -69
-14 -107 21 -161 18 -27 244 -262 503 -522 258 -261 471 -477 472 -480 2 -4
-195 -206 -437 -450 -461 -465 -556 -566 -566 -608 -9 -36 3 -112 24 -147 9
-16 34 -43 54 -60 31 -25 48 -30 107 -35 56 -4 76 -1 97 13 34 22 161 145 637
617 210 207 382 376 383 375 711 -708 978 -969 1005 -986 81 -50 224 -7 266
79 43 92 36 143 -34 229 -52 62 -195 210 -601 617 l-349 352 381 384 c666 671
656 658 618 777 -21 69 -59 107 -127 126 -75 22 -129 12 -185 -33 -25 -21
-253 -244 -508 -497 -255 -253 -468 -459 -473 -458 -5 2 -159 153 -343 335
-311 310 -536 530 -632 621 -34 31 -48 38 -95 42 -29 2 -58 2 -64 0z"/>
</g>
</svg>
