<?xml version="1.0" standalone="no"?>
<!DOCTYPE svg PUBLIC "-//W3C//DTD SVG 20010904//EN"
 "http://www.w3.org/TR/2001/REC-SVG-20010904/DTD/svg10.dtd">
<svg version="1.0" xmlns="http://www.w3.org/2000/svg"
 width="512.000000pt" height="512.000000pt" viewBox="0 0 512.000000 512.000000"
 preserveAspectRatio="xMidYMid meet">
<metadata>
Created by potrace 1.14, written by Peter Selinger 2001-2017
</metadata>
<g transform="translate(0.000000,512.000000) scale(0.100000,-0.100000)"
fill="#000000" stroke="none">
<path d="M104 4148 c-14 -4 -38 -17 -51 -30 -56 -52 -53 46 -50 -1567 2 -1487
2 -1490 23 -1517 11 -15 33 -37 48 -48 l27 -21 2459 0 2459 0 27 21 c15 11 37
33 48 48 21 27 21 30 24 1520 l2 1493 -22 33 c-13 18 -36 43 -51 54 l-28 21
-2444 0 c-1344 0 -2456 -3 -2471 -7z m4714 -1588 l2 -1295 -2257 0 -2258 0 -3
1295 -2 1295 2257 0 2258 0 3 -1295z"/>
<path d="M784 3512 c-57 -10 -87 -26 -112 -65 l-27 -41 -1 -839 c-1 -833 -1
-839 20 -880 39 -77 146 -103 213 -51 65 50 65 51 67 429 l1 340 510 5 c485 5
512 6 543 25 86 52 88 186 4 250 -26 19 -47 20 -543 25 l-516 5 0 248 c0 136
3 247 6 248 3 0 267 2 586 3 393 1 588 6 605 13 107 47 113 207 11 267 -33 19
-56 20 -691 20 -361 1 -665 0 -676 -2z"/>
<path d="M2695 3510 c-92 -20 -144 -107 -116 -193 9 -26 108 -132 373 -396
l360 -361 -357 -358 c-220 -220 -363 -370 -372 -391 -30 -70 4 -153 77 -191
31 -17 93 -14 128 4 15 8 186 174 381 370 l355 355 355 -356 c196 -195 369
-362 385 -370 113 -59 244 58 203 182 -6 19 -140 161 -371 392 l-361 363 368
368 c202 202 368 375 368 383 1 8 2 29 4 47 3 44 -32 112 -70 133 -45 26 -115
24 -156 -4 -19 -13 -187 -177 -375 -365 -188 -188 -345 -342 -350 -342 -5 0
-167 158 -359 351 -193 192 -359 355 -369 361 -33 18 -70 25 -101 18z"/>
</g>
</svg>
